<svg width="89" height="89" viewBox="0 0 89 89" fill="none" xmlns="http://www.w3.org/2000/svg">
    <rect width="89" height="89" fill="white"/>
    <path d="M5.5102 13.7566C5.54151 9.47274 9.03963 6.02538 13.3235 6.0567L75.3761 6.51026C79.6599 6.54157 83.1073 10.0397 83.076 14.3235L82.6224 76.3761C82.5911 80.66 79.093 84.1073 74.8091 84.076L12.7565 83.6225C8.47268 83.5911 5.02532 80.093 5.05663 75.8092L5.5102 13.7566Z" fill="#E3E2E2" fill-opacity="0.5"/>
    <path d="M49.6303 40.5767C51.4998 37.9085 55.4617 37.9374 57.2921 40.6327L79.0944 72.738C81.2015 75.8408 78.9607 80.0339 75.2101 80.0065L31.1386 79.6844C27.388 79.657 25.2087 75.4316 27.361 72.3598L49.6303 40.5767Z" fill="#E3E2E2" fill-opacity="0.5"/>
    <path d="M31.82 44.4839C33.6999 42.0252 37.4115 42.0523 39.2553 44.5383L59.95 72.441C62.2372 75.5248 60.0172 79.8955 56.1779 79.8674L14.3828 79.5619C10.5435 79.5339 8.38763 75.1312 10.7196 72.0811L31.82 44.4839Z" fill="#E3E2E2" fill-opacity="0.5"/>
    <path d="M37.2101 27.9509C37.1819 31.8063 34.0336 34.9089 30.1782 34.8808C26.3227 34.8526 23.2201 31.7043 23.2483 27.8488C23.2765 23.9934 26.4248 20.8907 30.2802 20.9189C34.1357 20.9471 37.2383 24.0954 37.2101 27.9509Z" fill="#E3E2E2" fill-opacity="0.5"/>
</svg>
