<svg width="55" height="55" viewBox="0 0 100 100" fill="none" xmlns="http://www.w3.org/2000/svg">
    <path d="M100 50C100 77.6142 77.6142 100 50 100C22.3858 100 0 77.6142 0 50C0 22.3858 22.3858 0 50 0C77.6142 0 100 22.3858 100 50Z"
          fill="#D9D9D9"/>
    <path d="M51.7879 69.8409H42.3154L26.4725 45.8835L26.4725 69.8409H17V31H26.4725L42.3154 55.0681V31L51.7879 31V69.8409Z"
          fill="#E1AF00"/>
    <path d="M51.7879 69.8409H42.3154L26.4725 45.8835L26.4725 69.8409H17V31H26.4725L42.3154 55.0681V31L51.7879 31V69.8409Z"
          fill="#24292F"/>
    <path d="M72.9764 69.8409L65.055 57.9452L58.0752 69.8409H47.3286L59.7925 50.0885L47.0517 31H58.0752L65.8859 42.7297L72.7549 31H83.5014L71.1484 50.5864L84 69.8409H72.9764Z"
          fill="#E1AF00"/>
</svg>
